# 3ds Max Wavefront OBJ Exporter v0.97b - (c)2007 guruware
# File Created: 08.12.2014 00:21:12

#
# object Cylinder001
#

v  0.00000 0.00000 -2.00000
v  0.06633 0.02414 -2.00000
v  0.07058 0.00000 -2.00000
v  0.05407 0.04537 -2.00000
v  0.03529 0.06113 -2.00000
v  0.01226 0.06951 -2.00000
v  -0.01226 0.06951 -2.00000
v  -0.03529 0.06113 -2.00000
v  -0.05407 0.04537 -2.00000
v  -0.06633 0.02414 -2.00000
v  -0.07058 0.00000 -2.00000
v  -0.06633 -0.02414 -2.00000
v  -0.05407 -0.04537 -2.00000
v  -0.03529 -0.06113 -2.00000
v  -0.01226 -0.06951 -2.00000
v  0.01226 -0.06951 -2.00000
v  0.03529 -0.06113 -2.00000
v  0.05407 -0.04537 -2.00000
v  0.06633 -0.02414 -2.00000
v  0.06633 0.02414 -1.30281
v  0.07058 0.00000 -1.30281
v  0.05407 0.04537 -1.30281
v  0.03529 0.06113 -1.30281
v  0.01226 0.06951 -1.30281
v  -0.01226 0.06951 -1.30281
v  -0.03529 0.06113 -1.30281
v  -0.05407 0.04537 -1.30281
v  -0.06633 0.02414 -1.30281
v  -0.07058 0.00000 -1.30281
v  -0.06633 -0.02414 -1.30281
v  -0.05407 -0.04537 -1.30281
v  -0.03529 -0.06113 -1.30281
v  -0.01226 -0.06951 -1.30281
v  0.01226 -0.06951 -1.30281
v  0.03529 -0.06113 -1.30281
v  0.05407 -0.04537 -1.30281
v  0.06633 -0.02414 -1.30281
v  0.06633 0.02414 -0.60562
v  0.07058 0.00000 -0.60562
v  0.05407 0.04537 -0.60562
v  0.03529 0.06113 -0.60562
v  0.01226 0.06951 -0.60562
v  -0.01226 0.06951 -0.60562
v  -0.03529 0.06113 -0.60562
v  -0.05407 0.04537 -0.60562
v  -0.06633 0.02414 -0.60562
v  -0.07058 0.00000 -0.60562
v  -0.06633 -0.02414 -0.60562
v  -0.05407 -0.04537 -0.60562
v  -0.03529 -0.06113 -0.60562
v  -0.01226 -0.06951 -0.60562
v  0.01226 -0.06951 -0.60562
v  0.03529 -0.06113 -0.60562
v  0.05407 -0.04537 -0.60562
v  0.06633 -0.02414 -0.60562
v  0.06633 0.02414 0.09156
v  0.07058 0.00000 0.09156
v  0.05407 0.04537 0.09156
v  0.03529 0.06113 0.09156
v  0.01226 0.06951 0.09156
v  -0.01226 0.06951 0.09156
v  -0.03529 0.06113 0.09156
v  -0.05407 0.04537 0.09156
v  -0.06633 0.02414 0.09156
v  -0.07058 0.00000 0.09156
v  -0.06633 -0.02414 0.09156
v  -0.05407 -0.04537 0.09156
v  -0.03529 -0.06113 0.09156
v  -0.01226 -0.06951 0.09156
v  0.01226 -0.06951 0.09156
v  0.03529 -0.06113 0.09156
v  0.05407 -0.04537 0.09156
v  0.06633 -0.02414 0.09156
v  0.06633 0.02414 0.78875
v  0.07058 0.00000 0.78875
v  0.05407 0.04537 0.78875
v  0.03529 0.06113 0.78875
v  0.01226 0.06951 0.78875
v  -0.01226 0.06951 0.78875
v  -0.03529 0.06113 0.78875
v  -0.05407 0.04537 0.78875
v  -0.06633 0.02414 0.78875
v  -0.07058 0.00000 0.78875
v  -0.06633 -0.02414 0.78875
v  -0.05407 -0.04537 0.78875
v  -0.03529 -0.06113 0.78875
v  -0.01226 -0.06951 0.78875
v  0.01226 -0.06951 0.78875
v  0.03529 -0.06113 0.78875
v  0.05407 -0.04537 0.78875
v  0.06633 -0.02414 0.78875
v  0.06633 0.02414 1.48594
v  0.07058 0.00000 1.48594
v  0.05407 0.04537 1.48594
v  0.03529 0.06113 1.48594
v  0.01226 0.06951 1.48594
v  -0.01226 0.06951 1.48594
v  -0.03529 0.06113 1.48594
v  -0.05407 0.04537 1.48594
v  -0.06633 0.02414 1.48594
v  -0.07058 0.00000 1.48594
v  -0.06633 -0.02414 1.48594
v  -0.05407 -0.04537 1.48594
v  -0.03529 -0.06113 1.48594
v  -0.01226 -0.06951 1.48594
v  0.01226 -0.06951 1.48594
v  0.03529 -0.06113 1.48594
v  0.05407 -0.04537 1.48594
v  0.06633 -0.02414 1.48594
v  0.00000 0.00000 1.48594
# 110 vertices

vn 0.00000 0.00000 -1.00000
vn 1.00000 -0.00000 -0.00000
vn 0.93969 0.34202 -0.00000
vn 0.76604 0.64279 -0.00000
vn 0.50000 0.86603 -0.00000
vn 0.17365 0.98481 -0.00000
vn -0.17365 0.98481 -0.00000
vn -0.50000 0.86603 -0.00000
vn -0.76604 0.64279 -0.00000
vn -0.93969 0.34202 -0.00000
vn -1.00000 0.00000 -0.00000
vn -0.93969 -0.34202 -0.00000
vn -0.76604 -0.64279 -0.00000
vn -0.50000 -0.86603 -0.00000
vn -0.17365 -0.98481 -0.00000
vn 0.17365 -0.98481 -0.00000
vn 0.50000 -0.86603 -0.00000
vn 0.76604 -0.64279 -0.00000
vn 0.93969 -0.34202 -0.00000
vn 0.93969 0.34202 0.00000
vn 1.00000 -0.00000 0.00000
vn 0.76604 0.64279 0.00000
vn 0.50000 0.86603 0.00000
vn 0.17365 0.98481 0.00000
vn -0.17365 0.98481 0.00000
vn -0.50000 0.86603 0.00000
vn -0.76604 0.64279 0.00000
vn -0.93969 0.34202 0.00000
vn -1.00000 0.00000 0.00000
vn -0.93969 -0.34202 0.00000
vn -0.76604 -0.64279 0.00000
vn -0.50000 -0.86603 0.00000
vn -0.17365 -0.98481 0.00000
vn 0.17365 -0.98481 0.00000
vn 0.50000 -0.86603 0.00000
vn 0.76604 -0.64279 0.00000
vn 0.93969 -0.34202 0.00000
vn 0.00000 0.00000 1.00000
# 38 vertex normals

vt 0.53016 0.02666 0.00000
vt 0.82090 0.02666 1.00000
vt 0.76804 0.02666 1.00000
vt 0.87377 0.02666 1.00000
vt 0.92663 0.02666 1.00000
vt 0.97949 0.02666 1.00000
vt 0.08083 0.02666 1.00000
vt 0.02796 0.02666 1.00000
vt 0.13369 0.02666 1.00000
vt 0.18655 0.02666 1.00000
vt 0.23942 0.02666 1.00000
vt 0.29228 0.02666 1.00000
vt 0.34514 0.02666 1.00000
vt 0.39800 0.02666 1.00000
vt 0.45087 0.02666 1.00000
vt 0.50373 0.02666 1.00000
vt 0.55659 0.02666 1.00000
vt 0.60945 0.02666 1.00000
vt 0.66232 0.02666 1.00000
vt 0.71518 0.02666 1.00000
vt 0.82090 0.21745 1.00000
vt 0.76804 0.21745 1.00000
vt 0.87377 0.21745 1.00000
vt 0.92663 0.21745 1.00000
vt 0.97949 0.21745 1.00000
vt 0.08083 0.21745 1.00000
vt 0.02796 0.21745 1.00000
vt 0.13369 0.21745 1.00000
vt 0.18655 0.21745 1.00000
vt 0.23942 0.21745 1.00000
vt 0.29228 0.21745 1.00000
vt 0.34514 0.21745 1.00000
vt 0.39800 0.21745 1.00000
vt 0.45087 0.21745 1.00000
vt 0.50373 0.21745 1.00000
vt 0.55659 0.21745 1.00000
vt 0.60945 0.21745 1.00000
vt 0.66232 0.21745 1.00000
vt 0.71518 0.21745 1.00000
vt 0.82090 0.40824 1.00000
vt 0.76804 0.40824 1.00000
vt 0.87377 0.40824 1.00000
vt 0.92663 0.40824 1.00000
vt 0.97949 0.40824 1.00000
vt 0.08083 0.40824 1.00000
vt 0.02796 0.40824 1.00000
vt 0.13369 0.40824 1.00000
vt 0.18655 0.40824 1.00000
vt 0.23942 0.40824 1.00000
vt 0.29228 0.40824 1.00000
vt 0.34514 0.40824 1.00000
vt 0.39800 0.40824 1.00000
vt 0.45087 0.40824 1.00000
vt 0.50373 0.40824 1.00000
vt 0.55659 0.40824 1.00000
vt 0.60945 0.40824 1.00000
vt 0.66232 0.40824 1.00000
vt 0.71518 0.40824 1.00000
vt 0.82090 0.59903 1.00000
vt 0.76804 0.59903 1.00000
vt 0.87377 0.59903 1.00000
vt 0.92663 0.59903 1.00000
vt 0.97949 0.59903 1.00000
vt 0.08083 0.59903 1.00000
vt 0.02796 0.59903 1.00000
vt 0.13369 0.59903 1.00000
vt 0.18655 0.59903 1.00000
vt 0.23942 0.59903 1.00000
vt 0.29228 0.59903 1.00000
vt 0.34514 0.59903 1.00000
vt 0.39800 0.59903 1.00000
vt 0.45087 0.59903 1.00000
vt 0.50373 0.59903 1.00000
vt 0.55659 0.59903 1.00000
vt 0.60945 0.59903 1.00000
vt 0.66232 0.59903 1.00000
vt 0.71518 0.59903 1.00000
vt 0.82090 0.78982 1.00000
vt 0.76804 0.78982 1.00000
vt 0.87377 0.78982 1.00000
vt 0.92663 0.78982 1.00000
vt 0.97949 0.78982 1.00000
vt 0.08083 0.78982 1.00000
vt 0.02796 0.78982 1.00000
vt 0.13369 0.78982 1.00000
vt 0.18655 0.78982 1.00000
vt 0.23942 0.78982 1.00000
vt 0.29228 0.78982 1.00000
vt 0.34514 0.78982 1.00000
vt 0.39800 0.78982 1.00000
vt 0.45087 0.78982 1.00000
vt 0.50373 0.78982 1.00000
vt 0.55659 0.78982 1.00000
vt 0.60945 0.78982 1.00000
vt 0.66232 0.78982 1.00000
vt 0.71518 0.78982 1.00000
vt 0.82090 0.98061 1.00000
vt 0.76804 0.98061 1.00000
vt 0.87377 0.98061 1.00000
vt 0.92663 0.98061 1.00000
vt 0.97949 0.98061 1.00000
vt 0.08083 0.98061 1.00000
vt 0.02796 0.98061 1.00000
vt 0.13369 0.98061 1.00000
vt 0.18655 0.98061 1.00000
vt 0.23942 0.98061 1.00000
vt 0.29228 0.98061 1.00000
vt 0.34514 0.98061 1.00000
vt 0.39800 0.98061 1.00000
vt 0.45087 0.98061 1.00000
vt 0.50373 0.98061 1.00000
vt 0.55659 0.98061 1.00000
vt 0.60945 0.98061 1.00000
vt 0.66232 0.98061 1.00000
vt 0.71518 0.98061 1.00000
vt 0.53016 0.98061 0.00000
# 116 texture coords

g Cylinder001
f 1/1/1 2/2/1 3/3/1 
f 1/1/1 4/4/1 2/2/1 
f 1/1/1 5/5/1 4/4/1 
f 1/1/1 6/6/1 5/5/1 
f 1/1/1 7/7/1 6/8/1 
f 1/1/1 8/9/1 7/7/1 
f 1/1/1 9/10/1 8/9/1 
f 1/1/1 10/11/1 9/10/1 
f 1/1/1 11/12/1 10/11/1 
f 1/1/1 12/13/1 11/12/1 
f 1/1/1 13/14/1 12/13/1 
f 1/1/1 14/15/1 13/14/1 
f 1/1/1 15/16/1 14/15/1 
f 1/1/1 16/17/1 15/16/1 
f 1/1/1 17/18/1 16/17/1 
f 1/1/1 18/19/1 17/18/1 
f 1/1/1 19/20/1 18/19/1 
f 1/1/1 3/3/1 19/20/1 
f 3/3/2 20/21/3 21/22/2 
f 3/3/2 2/2/3 20/21/3 
f 2/2/3 22/23/4 20/21/3 
f 2/2/3 4/4/4 22/23/4 
f 4/4/4 23/24/5 22/23/4 
f 4/4/4 5/5/5 23/24/5 
f 5/5/5 24/25/6 23/24/5 
f 5/5/5 6/6/6 24/25/6 
f 6/8/6 25/26/7 24/27/6 
f 6/8/6 7/7/7 25/26/7 
f 7/7/7 26/28/8 25/26/7 
f 7/7/7 8/9/8 26/28/8 
f 8/9/8 27/29/9 26/28/8 
f 8/9/8 9/10/9 27/29/9 
f 9/10/9 28/30/10 27/29/9 
f 9/10/9 10/11/10 28/30/10 
f 10/11/10 29/31/11 28/30/10 
f 10/11/10 11/12/11 29/31/11 
f 11/12/11 30/32/12 29/31/11 
f 11/12/11 12/13/12 30/32/12 
f 12/13/12 31/33/13 30/32/12 
f 12/13/12 13/14/13 31/33/13 
f 13/14/13 32/34/14 31/33/13 
f 13/14/13 14/15/14 32/34/14 
f 14/15/14 33/35/15 32/34/14 
f 14/15/14 15/16/15 33/35/15 
f 15/16/15 34/36/16 33/35/15 
f 15/16/15 16/17/16 34/36/16 
f 16/17/16 35/37/17 34/36/16 
f 16/17/16 17/18/17 35/37/17 
f 17/18/17 36/38/18 35/37/17 
f 17/18/17 18/19/18 36/38/18 
f 18/19/18 37/39/19 36/38/18 
f 18/19/18 19/20/19 37/39/19 
f 19/20/19 21/22/2 37/39/19 
f 19/20/19 3/3/2 21/22/2 
f 21/22/2 38/40/20 39/41/21 
f 21/22/2 20/21/3 38/40/20 
f 20/21/3 40/42/22 38/40/20 
f 20/21/3 22/23/4 40/42/22 
f 22/23/4 41/43/23 40/42/22 
f 22/23/4 23/24/5 41/43/23 
f 23/24/5 42/44/24 41/43/23 
f 23/24/5 24/25/6 42/44/24 
f 24/27/6 43/45/25 42/46/24 
f 24/27/6 25/26/7 43/45/25 
f 25/26/7 44/47/26 43/45/25 
f 25/26/7 26/28/8 44/47/26 
f 26/28/8 45/48/27 44/47/26 
f 26/28/8 27/29/9 45/48/27 
f 27/29/9 46/49/28 45/48/27 
f 27/29/9 28/30/10 46/49/28 
f 28/30/10 47/50/29 46/49/28 
f 28/30/10 29/31/11 47/50/29 
f 29/31/11 48/51/30 47/50/29 
f 29/31/11 30/32/12 48/51/30 
f 30/32/12 49/52/31 48/51/30 
f 30/32/12 31/33/13 49/52/31 
f 31/33/13 50/53/32 49/52/31 
f 31/33/13 32/34/14 50/53/32 
f 32/34/14 51/54/33 50/53/32 
f 32/34/14 33/35/15 51/54/33 
f 33/35/15 52/55/34 51/54/33 
f 33/35/15 34/36/16 52/55/34 
f 34/36/16 53/56/35 52/55/34 
f 34/36/16 35/37/17 53/56/35 
f 35/37/17 54/57/36 53/56/35 
f 35/37/17 36/38/18 54/57/36 
f 36/38/18 55/58/37 54/57/36 
f 36/38/18 37/39/19 55/58/37 
f 37/39/19 39/41/21 55/58/37 
f 37/39/19 21/22/2 39/41/21 
f 39/41/21 56/59/20 57/60/21 
f 39/41/21 38/40/20 56/59/20 
f 38/40/20 58/61/22 56/59/20 
f 38/40/20 40/42/22 58/61/22 
f 40/42/22 59/62/23 58/61/22 
f 40/42/22 41/43/23 59/62/23 
f 41/43/23 60/63/24 59/62/23 
f 41/43/23 42/44/24 60/63/24 
f 42/46/24 61/64/25 60/65/24 
f 42/46/24 43/45/25 61/64/25 
f 43/45/25 62/66/26 61/64/25 
f 43/45/25 44/47/26 62/66/26 
f 44/47/26 63/67/27 62/66/26 
f 44/47/26 45/48/27 63/67/27 
f 45/48/27 64/68/28 63/67/27 
f 45/48/27 46/49/28 64/68/28 
f 46/49/28 65/69/29 64/68/28 
f 46/49/28 47/50/29 65/69/29 
f 47/50/29 66/70/30 65/69/29 
f 47/50/29 48/51/30 66/70/30 
f 48/51/30 67/71/31 66/70/30 
f 48/51/30 49/52/31 67/71/31 
f 49/52/31 68/72/32 67/71/31 
f 49/52/31 50/53/32 68/72/32 
f 50/53/32 69/73/33 68/72/32 
f 50/53/32 51/54/33 69/73/33 
f 51/54/33 70/74/34 69/73/33 
f 51/54/33 52/55/34 70/74/34 
f 52/55/34 71/75/35 70/74/34 
f 52/55/34 53/56/35 71/75/35 
f 53/56/35 72/76/36 71/75/35 
f 53/56/35 54/57/36 72/76/36 
f 54/57/36 73/77/37 72/76/36 
f 54/57/36 55/58/37 73/77/37 
f 55/58/37 57/60/21 73/77/37 
f 55/58/37 39/41/21 57/60/21 
f 57/60/21 74/78/20 75/79/21 
f 57/60/21 56/59/20 74/78/20 
f 56/59/20 76/80/22 74/78/20 
f 56/59/20 58/61/22 76/80/22 
f 58/61/22 77/81/23 76/80/22 
f 58/61/22 59/62/23 77/81/23 
f 59/62/23 78/82/24 77/81/23 
f 59/62/23 60/63/24 78/82/24 
f 60/65/24 79/83/25 78/84/24 
f 60/65/24 61/64/25 79/83/25 
f 61/64/25 80/85/26 79/83/25 
f 61/64/25 62/66/26 80/85/26 
f 62/66/26 81/86/27 80/85/26 
f 62/66/26 63/67/27 81/86/27 
f 63/67/27 82/87/28 81/86/27 
f 63/67/27 64/68/28 82/87/28 
f 64/68/28 83/88/29 82/87/28 
f 64/68/28 65/69/29 83/88/29 
f 65/69/29 84/89/30 83/88/29 
f 65/69/29 66/70/30 84/89/30 
f 66/70/30 85/90/31 84/89/30 
f 66/70/30 67/71/31 85/90/31 
f 67/71/31 86/91/32 85/90/31 
f 67/71/31 68/72/32 86/91/32 
f 68/72/32 87/92/33 86/91/32 
f 68/72/32 69/73/33 87/92/33 
f 69/73/33 88/93/34 87/92/33 
f 69/73/33 70/74/34 88/93/34 
f 70/74/34 89/94/35 88/93/34 
f 70/74/34 71/75/35 89/94/35 
f 71/75/35 90/95/36 89/94/35 
f 71/75/35 72/76/36 90/95/36 
f 72/76/36 91/96/37 90/95/36 
f 72/76/36 73/77/37 91/96/37 
f 73/77/37 75/79/21 91/96/37 
f 73/77/37 57/60/21 75/79/21 
f 75/79/21 92/97/20 93/98/21 
f 75/79/21 74/78/20 92/97/20 
f 74/78/20 94/99/22 92/97/20 
f 74/78/20 76/80/22 94/99/22 
f 76/80/22 95/100/23 94/99/22 
f 76/80/22 77/81/23 95/100/23 
f 77/81/23 96/101/24 95/100/23 
f 77/81/23 78/82/24 96/101/24 
f 78/84/24 97/102/25 96/103/24 
f 78/84/24 79/83/25 97/102/25 
f 79/83/25 98/104/26 97/102/25 
f 79/83/25 80/85/26 98/104/26 
f 80/85/26 99/105/27 98/104/26 
f 80/85/26 81/86/27 99/105/27 
f 81/86/27 100/106/28 99/105/27 
f 81/86/27 82/87/28 100/106/28 
f 82/87/28 101/107/29 100/106/28 
f 82/87/28 83/88/29 101/107/29 
f 83/88/29 102/108/30 101/107/29 
f 83/88/29 84/89/30 102/108/30 
f 84/89/30 103/109/31 102/108/30 
f 84/89/30 85/90/31 103/109/31 
f 85/90/31 104/110/32 103/109/31 
f 85/90/31 86/91/32 104/110/32 
f 86/91/32 105/111/33 104/110/32 
f 86/91/32 87/92/33 105/111/33 
f 87/92/33 106/112/34 105/111/33 
f 87/92/33 88/93/34 106/112/34 
f 88/93/34 107/113/35 106/112/34 
f 88/93/34 89/94/35 107/113/35 
f 89/94/35 108/114/36 107/113/35 
f 89/94/35 90/95/36 108/114/36 
f 90/95/36 109/115/37 108/114/36 
f 90/95/36 91/96/37 109/115/37 
f 91/96/37 93/98/21 109/115/37 
f 91/96/37 75/79/21 93/98/21 
f 110/116/38 93/98/38 92/97/38 
f 110/116/38 92/97/38 94/99/38 
f 110/116/38 94/99/38 95/100/38 
f 110/116/38 95/100/38 96/101/38 
f 110/116/38 96/103/38 97/102/38 
f 110/116/38 97/102/38 98/104/38 
f 110/116/38 98/104/38 99/105/38 
f 110/116/38 99/105/38 100/106/38 
f 110/116/38 100/106/38 101/107/38 
f 110/116/38 101/107/38 102/108/38 
f 110/116/38 102/108/38 103/109/38 
f 110/116/38 103/109/38 104/110/38 
f 110/116/38 104/110/38 105/111/38 
f 110/116/38 105/111/38 106/112/38 
f 110/116/38 106/112/38 107/113/38 
f 110/116/38 107/113/38 108/114/38 
f 110/116/38 108/114/38 109/115/38 
f 110/116/38 109/115/38 93/98/38 
# 216 faces

