# 3ds Max Wavefront OBJ Exporter v0.97b - (c)2007 guruware
# File Created: 17.11.2014 00:12:40

#
# object Line001
#

#
# object Line003
#

v  -0.01701 0.04472 -0.20368
v  -0.18173 0.04472 -0.45222
v  -0.36333 0.04472 -0.45397
v  -0.02461 0.04472 -0.19655
v  0.02499 0.04472 -0.19660
v  0.36223 0.04472 -0.45395
v  0.18154 0.04472 -0.45220
v  0.01739 0.04472 -0.20370
v  -0.02461 -0.05410 -0.19655
v  -0.36333 -0.05410 -0.45397
v  -0.18173 -0.05410 -0.45222
v  -0.01701 -0.05410 -0.20368
v  0.01739 -0.05410 -0.20370
v  0.18154 -0.05410 -0.45220
v  0.36223 -0.05410 -0.45395
v  0.02499 -0.05410 -0.19660
v  0.36048 -0.04561 -0.45911
v  0.19472 -0.04561 -0.45928
v  0.19472 0.03622 -0.45928
v  0.36048 0.03622 -0.45911
v  -0.19492 0.03622 -0.45930
v  -0.19492 -0.04561 -0.45930
v  -0.36160 -0.04561 -0.45912
v  -0.36160 0.03622 -0.45912
v  -0.36693 -0.05410 -0.45122
v  0.00041 -0.05410 0.46436
v  0.00041 0.04472 0.46436
v  -0.36693 0.04472 -0.45122
v  0.36583 -0.05410 -0.45121
v  0.36583 0.04472 -0.45121
v  -0.36535 0.04283 -0.45328
v  -0.36515 0.04189 -0.45386
v  0.36444 0.04378 -0.45270
v  0.36463 0.04472 -0.45213
v  -0.36275 -0.05127 -0.45569
v  -0.36335 -0.05222 -0.45481
v  0.36424 -0.05222 -0.45327
v  0.36405 -0.05127 -0.45385
v  -0.18528 0.04378 -0.45616
v  -0.36275 0.04189 -0.45569
v  0.36165 0.04189 -0.45567
v  0.18509 0.04378 -0.45614
v  -0.18528 -0.05316 -0.45616
v  0.18509 -0.05316 -0.45614
v  0.36165 -0.05127 -0.45567
v  0.18948 -0.05033 -0.45850
v  0.18948 0.04095 -0.45850
v  0.36227 0.03906 -0.45648
v  0.36227 -0.04844 -0.45648
v  -0.36338 -0.04844 -0.45649
v  -0.36338 0.03906 -0.45649
v  -0.36573 0.04472 -0.45214
v  -0.36554 0.04378 -0.45271
v  -0.36453 0.04472 -0.45305
v  -0.36415 0.04283 -0.45420
v  -0.36376 0.04095 -0.45534
v  -0.36218 0.03906 -0.45740
v  0.36405 0.04189 -0.45385
v  0.36424 0.04283 -0.45327
v  0.36265 0.04095 -0.45533
v  0.36106 0.03906 -0.45739
v  0.36304 0.04283 -0.45419
v  0.36343 0.04472 -0.45304
v  -0.36453 -0.05410 -0.45305
v  -0.36394 -0.05316 -0.45393
v  -0.36573 -0.05410 -0.45214
v  -0.36455 -0.05222 -0.45389
v  -0.36515 -0.05127 -0.45386
v  -0.36336 -0.05033 -0.45565
v  -0.36218 -0.04844 -0.45740
v  0.36463 -0.05410 -0.45213
v  0.36444 -0.05316 -0.45270
v  0.36343 -0.05410 -0.45304
v  0.36304 -0.05222 -0.45419
v  0.36265 -0.05033 -0.45533
v  0.36106 -0.04844 -0.45739
v  -0.18968 0.04095 -0.45851
v  -0.18968 -0.05033 -0.45851
# 78 vertices

vn 0.00000 1.00000 0.00000
vn 0.00000 -1.00000 -0.00000
vn 0.00102 0.00000 -1.00000
vn -0.83439 0.00000 -0.55118
vn 0.83355 0.00000 -0.55244
vn -0.00106 0.00000 -1.00000
vn -0.92809 -0.00000 0.37236
vn 0.92876 -0.00000 0.37069
vn -0.57063 0.33748 -0.74866
vn 0.56893 0.33874 -0.74938
vn -0.57061 -0.33748 -0.74867
vn 0.56892 -0.33874 -0.74939
vn -0.01096 0.97453 -0.22399
vn 0.00822 0.51955 -0.85440
vn 0.00781 0.51812 -0.85527
vn -0.00227 0.97197 -0.23508
vn -0.00777 -0.51716 -0.85585
vn 0.00226 -0.97192 -0.23530
vn 0.01102 -0.97459 -0.22374
vn -0.00826 -0.52052 -0.85381
vn -0.14775 0.00000 -0.98902
vn 0.82814 0.00000 -0.56052
vn 0.74222 0.00000 -0.67016
vn -0.82865 0.00000 -0.55976
vn -0.57063 0.33747 -0.74866
vn -0.57062 0.33748 -0.74867
vn -0.57061 0.33748 -0.74867
vn -0.57060 0.33750 -0.74867
vn -0.57062 0.33748 -0.74866
vn 0.56892 0.33874 -0.74939
vn 0.56894 0.33872 -0.74938
vn 0.56893 0.33873 -0.74939
vn 0.56893 0.33872 -0.74939
vn 0.56895 0.33871 -0.74938
vn 0.56892 0.33873 -0.74939
vn 0.56893 0.33873 -0.74938
vn -0.57063 -0.33747 -0.74866
vn -0.57062 -0.33748 -0.74867
vn -0.57064 -0.33747 -0.74865
vn -0.57062 -0.33748 -0.74866
vn 0.56893 -0.33873 -0.74938
vn 0.56893 -0.33873 -0.74939
vn 0.56894 -0.33871 -0.74938
vn 0.56895 -0.33871 -0.74938
vn 0.56894 -0.33872 -0.74938
vn 0.56894 -0.33872 -0.74939
vn -0.01202 0.65071 -0.75923
vn -0.00777 0.51716 -0.85585
vn -0.00105 0.16455 -0.98637
vn -0.01117 0.51664 -0.85613
vn 0.01122 0.51759 -0.85555
vn 0.00895 0.64833 -0.76130
vn 0.00087 0.51917 -0.85467
vn 0.00826 0.17253 -0.98497
vn -0.01117 -0.51664 -0.85613
vn -0.00891 -0.64791 -0.76166
vn -0.00091 -0.51820 -0.85526
vn -0.00824 -0.17231 -0.98501
vn 0.01206 -0.65113 -0.75887
vn 0.00781 -0.51812 -0.85527
vn 0.00101 -0.16471 -0.98634
vn 0.01122 -0.51759 -0.85555
vn -0.47327 0.00000 -0.88092
vn -0.74311 0.00000 -0.66917
vn 0.47258 0.00000 -0.88129
vn 0.14753 0.00000 -0.98906
vn -0.82866 0.00000 -0.55976
vn -0.82866 0.00000 -0.55975
vn -0.00076 0.00000 -1.00000
# 69 vertex normals

vt 0.36901 0.76884 1.00000
vt 0.52622 0.95702 1.00000
vt 0.69953 0.95834 1.00000
vt 0.37626 0.76345 1.00000
vt 0.32893 0.76348 1.00000
vt 0.00708 0.95833 1.00000
vt 0.17952 0.95700 1.00000
vt 0.33618 0.76886 1.00000
vt 0.63471 0.35997 2.00000
vt 0.32249 0.17174 2.00000
vt 0.48988 0.17302 2.00000
vt 0.64172 0.35477 2.00000
vt 0.67342 0.35475 2.00000
vt 0.82473 0.17303 2.00000
vt 0.99128 0.17414 2.00000
vt 0.68043 0.36232 2.00000
vt 0.98960 0.15176 1.91402
vt 0.76339 0.15158 1.91402
vt 0.76326 0.00188 1.08598
vt 0.98947 0.00206 1.08598
vt 0.74527 0.00954 1.00000
vt 0.74540 0.15925 2.00000
vt 0.52436 0.15983 2.00000
vt 0.52423 0.01013 1.00000
vt 0.47729 0.01015 1.00000
vt 0.47742 0.15986 2.00000
vt 0.24964 0.15922 2.00000
vt 0.24951 0.00952 1.00000
vt 0.23151 0.00186 1.08598
vt 0.23164 0.15157 1.91402
vt 0.00418 0.15176 1.91402
vt 0.00405 0.00206 1.08598
vt 0.00952 0.16341 2.00000
vt 0.00952 0.46341 2.00000
vt 0.20952 0.46339 1.00000
vt 0.20943 0.16348 1.00000
vt -0.00323 0.01060 1.00000
vt -0.00107 0.00837 1.01911
vt -0.00080 0.00775 1.02866
vt 0.99677 0.01061 1.00000
vt 0.99486 0.00901 1.00955
vt 0.99513 0.00963 1.00000
vt 0.00247 0.00577 1.97134
vt 0.00168 0.00763 2.00000
vt 0.00166 0.00672 1.98089
vt 0.99677 0.01061 2.00000
vt 0.99460 0.00838 1.98089
vt 0.99434 0.00776 1.97134
vt 0.52961 0.96000 1.00955
vt 0.69897 0.95964 1.02866
vt 0.00764 0.95963 1.02866
vt 0.17614 0.95998 1.00955
vt 0.32302 0.17048 1.97134
vt 0.48661 0.17014 1.99045
vt 0.82800 0.17015 1.99045
vt 0.99074 0.17049 1.97134
vt 0.75624 0.15243 1.96179
vt 0.75611 0.00272 1.03821
vt 0.99190 0.00491 1.05732
vt 0.99190 0.00491 1.94268
vt 0.24479 0.15497 1.99045
vt 0.24466 0.00526 1.00955
vt 0.00162 0.00491 1.94268
vt 0.00162 0.00491 1.05732
vt -0.00159 0.00961 1.00000
vt -0.00133 0.00899 1.00955
vt 0.00005 0.00862 1.00000
vt 0.00057 0.00738 1.01911
vt 0.00168 0.00763 1.00000
vt 0.00247 0.00577 1.02866
vt 0.00110 0.00614 1.03821
vt 0.00326 0.00392 1.05732
vt 0.99434 0.00776 1.02866
vt 0.99460 0.00838 1.01911
vt 0.99243 0.00615 1.03821
vt 0.99026 0.00392 1.05732
vt 0.99296 0.00740 1.01911
vt 0.99106 0.00579 1.02866
vt 0.99349 0.00864 1.00000
vt 0.99185 0.00765 1.00000
vt 0.00005 0.00862 2.00000
vt 0.00085 0.00767 1.99045
vt -0.00159 0.00961 2.00000
vt 0.00002 0.00771 1.98089
vt -0.00323 0.01060 2.00000
vt -0.00080 0.00775 1.97134
vt 0.00164 0.00581 1.96179
vt 0.00326 0.00392 1.94268
vt 0.99513 0.00963 2.00000
vt 0.99486 0.00901 1.99045
vt 0.99349 0.00864 2.00000
vt 0.99296 0.00740 1.98089
vt 0.99185 0.00765 2.00000
vt 0.99106 0.00579 1.97134
vt 0.99243 0.00615 1.96179
vt 0.99026 0.00392 1.94268
vt 0.53380 0.96178 1.03821
vt 0.69842 0.96094 1.05732
vt 0.53880 0.96237 1.08598
vt 0.69787 0.96224 1.08598
vt 0.00819 0.96093 1.05732
vt 0.17194 0.96177 1.03821
vt 0.00875 0.96224 1.08598
vt 0.16694 0.96236 1.08598
vt 0.32356 0.16923 1.94268
vt 0.48255 0.16841 1.96179
vt 0.32409 0.16797 1.91402
vt 0.47772 0.16784 1.91402
vt 0.83205 0.16842 1.96179
vt 0.99021 0.16923 1.94268
vt 0.83688 0.16785 1.91402
vt 0.98967 0.16798 1.91402
vt 0.75024 0.15498 1.99045
vt 0.75011 0.00528 1.00955
vt 0.23879 0.15241 1.96179
vt 0.23866 0.00271 1.03821
vt 0.65667 0.84568 2.00000
vt 0.31925 0.17373 2.00000
vt 0.32028 0.17308 2.00000
vt 0.32138 0.17241 2.00000
vt 0.99239 0.17480 2.00000
vt 0.99349 0.17547 2.00000
vt 0.99460 0.17614 2.00000
vt 0.70182 0.95695 1.00000
vt 0.70296 0.95626 1.00000
vt 0.35239 0.26305 1.00000
vt 0.70067 0.95765 1.00000
vt 0.00594 0.95764 1.00000
vt 0.00479 0.95695 1.00000
vt 0.00364 0.95625 1.00000
# 130 texture coords

g Line003
f 1/1/1 2/2/1 3/3/1 
f 3/3/1 4/4/1 1/1/1 
f 5/5/1 6/6/1 7/7/1 
f 7/7/1 8/8/1 5/5/1 
f 9/9/2 10/10/2 11/11/2 
f 11/11/2 12/12/2 9/9/2 
f 13/13/2 14/14/2 15/15/2 
f 15/15/2 16/16/2 13/13/2 
f 17/17/3 18/18/3 19/19/3 
f 19/19/3 20/20/3 17/17/3 
f 7/21/4 14/22/4 13/23/4 
f 13/23/4 8/24/4 7/21/4 
f 1/25/5 12/26/5 11/27/5 
f 11/27/5 2/28/5 1/25/5 
f 21/29/6 22/30/6 23/31/6 
f 23/31/6 24/32/6 21/29/6 
f 25/33/7 26/34/7 27/35/7 
f 27/35/7 28/36/7 25/33/7 
f 26/34/8 29/33/8 30/36/8 
f 30/36/8 27/35/8 26/34/8 
f 28/37/9 31/38/9 32/39/9 
f 30/40/10 33/41/10 34/42/10 
f 35/43/11 10/44/11 36/45/11 
f 29/46/12 37/47/12 38/48/12 
f 2/2/13 39/49/13 40/50/13 
f 40/50/14 3/3/14 2/2/14 
f 6/6/15 41/51/15 42/52/15 
f 42/52/16 7/7/16 6/6/16 
f 10/10/17 35/53/17 43/54/17 
f 43/54/18 11/11/18 10/10/18 
f 14/14/19 44/55/19 45/56/19 
f 45/56/20 15/15/20 14/14/20 
f 18/18/21 46/57/21 47/58/21 
f 47/58/21 19/19/21 18/18/21 
f 20/20/22 48/59/22 49/60/22 
f 49/60/22 17/17/22 20/20/22 
f 11/27/23 43/61/23 39/62/23 
f 39/62/23 2/28/23 11/27/23 
f 23/31/24 50/63/24 51/64/24 
f 51/64/24 24/32/24 23/31/24 
f 28/37/25 52/65/25 53/66/25 
f 52/65/26 54/67/26 55/68/26 
f 55/68/27 53/66/27 52/65/27 
f 54/67/25 3/69/25 40/70/25 
f 40/70/25 55/68/25 54/67/25 
f 28/37/25 53/66/25 31/38/25 
f 53/66/27 55/68/27 56/71/27 
f 56/71/26 31/38/26 53/66/26 
f 55/68/25 40/70/25 57/72/25 
f 57/72/9 56/71/9 55/68/9 
f 31/38/28 56/71/28 51/64/28 
f 51/64/29 32/39/29 31/38/29 
f 56/71/9 57/72/9 24/32/9 
f 24/32/28 51/64/28 56/71/28 
f 30/40/30 58/73/30 59/74/30 
f 58/73/31 48/59/31 60/75/31 
f 60/75/10 59/74/10 58/73/10 
f 48/59/32 20/20/32 61/76/32 
f 61/76/33 60/75/33 48/59/33 
f 30/40/34 59/74/34 33/41/34 
f 59/74/10 60/75/10 62/77/10 
f 62/77/33 33/41/33 59/74/33 
f 60/75/30 61/76/30 41/78/30 
f 41/78/30 62/77/30 60/75/30 
f 33/41/30 62/77/30 63/79/30 
f 63/79/30 34/42/30 33/41/30 
f 62/77/35 41/78/35 6/80/35 
f 6/80/36 63/79/36 62/77/36 
f 10/44/37 64/81/37 65/82/37 
f 64/81/38 66/83/38 67/84/38 
f 67/84/11 65/82/11 64/81/11 
f 66/83/37 25/85/37 68/86/37 
f 68/86/38 67/84/38 66/83/38 
f 10/44/39 65/82/39 36/45/39 
f 65/82/40 67/84/40 69/87/40 
f 69/87/39 36/45/39 65/82/39 
f 67/84/38 68/86/38 50/63/38 
f 50/63/40 69/87/40 67/84/40 
f 36/45/38 69/87/38 70/88/38 
f 70/88/11 35/43/11 36/45/11 
f 69/87/11 50/63/11 23/31/11 
f 23/31/38 70/88/38 69/87/38 
f 29/46/41 71/89/41 72/90/41 
f 71/89/12 73/91/12 74/92/12 
f 74/92/12 72/90/12 71/89/12 
f 73/91/42 15/93/42 45/94/42 
f 45/94/12 74/92/12 73/91/12 
f 29/46/43 72/90/43 37/47/43 
f 72/90/12 74/92/12 75/95/12 
f 75/95/44 37/47/44 72/90/44 
f 74/92/12 45/94/12 76/96/12 
f 76/96/12 75/95/12 74/92/12 
f 37/47/45 75/95/45 49/60/45 
f 49/60/12 38/48/12 37/47/12 
f 75/95/42 76/96/42 17/17/42 
f 17/17/46 49/60/46 75/95/46 
f 39/49/47 77/97/47 57/98/47 
f 57/98/48 40/50/48 39/49/48 
f 77/97/49 21/99/49 24/100/49 
f 24/100/50 57/98/50 77/97/50 
f 41/51/51 61/101/51 47/102/51 
f 47/102/52 42/52/52 41/51/52 
f 61/101/53 20/103/53 19/104/53 
f 19/104/54 47/102/54 61/101/54 
f 35/53/55 70/105/55 78/106/55 
f 78/106/56 43/54/56 35/53/56 
f 70/105/57 23/107/57 22/108/57 
f 22/108/58 78/106/58 70/105/58 
f 44/55/59 46/109/59 76/110/59 
f 76/110/60 45/56/60 44/55/60 
f 46/109/61 18/111/61 17/112/61 
f 17/112/62 76/110/62 46/109/62 
f 46/57/63 44/113/63 42/114/63 
f 42/114/63 47/58/63 46/57/63 
f 44/113/64 14/22/64 7/21/64 
f 7/21/64 42/114/64 44/113/64 
f 48/59/22 58/73/22 38/48/22 
f 38/48/22 49/60/22 48/59/22 
f 58/73/22 30/40/22 29/46/22 
f 29/46/22 38/48/22 58/73/22 
f 43/61/65 78/115/65 77/116/65 
f 77/116/65 39/62/65 43/61/65 
f 78/115/66 22/30/66 21/29/66 
f 21/29/66 77/116/66 78/115/66 
f 50/63/67 68/86/67 32/39/67 
f 32/39/67 51/64/67 50/63/67 
f 68/86/68 25/85/68 28/37/68 
f 28/37/68 32/39/68 68/86/68 
f 5/5/1 8/8/1 1/1/1 
f 1/1/1 4/4/1 5/5/1 
f 9/9/2 12/12/2 13/13/2 
f 13/13/2 16/16/2 9/9/2 
f 1/25/69 8/24/69 13/23/69 
f 13/23/69 12/26/69 1/25/69 
f 26/117/2 25/118/2 66/119/2 
f 26/117/2 66/119/2 64/120/2 
f 26/117/2 64/120/2 10/10/2 
f 26/117/2 10/10/2 9/9/2 
f 26/117/2 9/9/2 16/16/2 
f 16/16/2 15/15/2 73/121/2 
f 16/16/2 73/121/2 71/122/2 
f 16/16/2 71/122/2 29/123/2 
f 16/16/2 29/123/2 26/117/2 
f 52/124/1 28/125/1 27/126/1 
f 27/126/1 4/4/1 3/3/1 
f 27/126/1 3/3/1 54/127/1 
f 52/124/1 27/126/1 54/127/1 
f 27/126/1 5/5/1 4/4/1 
f 63/128/1 6/6/1 5/5/1 
f 34/129/1 63/128/1 5/5/1 
f 30/130/1 34/129/1 5/5/1 
f 27/126/1 30/130/1 5/5/1 
# 152 faces

